<?xml version="1.0" encoding="utf-8"?>
<!-- Generator: Adobe Illustrator 23.0.0, SVG Export Plug-In . SVG Version: 6.00 Build 0)  -->
<svg version="1.1" id="Capa_1" xmlns="http://www.w3.org/2000/svg" xmlns:xlink="http://www.w3.org/1999/xlink" x="0px" y="0px"
	 viewBox="0 0 39 49" style="enable-background:new 0 0 39 49;" xml:space="preserve">
<style type="text/css">
	.st0{fill:#FFFFFF;}
</style>
<path id="Trazado_74" class="st0" d="M16.5,25.6h-6.1c-3.1-0.8-10-0.6-10,5.7c-0.1,1.9,0.9,3.8,2.7,4.7c-1.9,1.8-2.8,2.6-2.8,3.8
	c0,0.9,0.5,1.7,1.4,2.1c-1.1,1-1.7,1.8-1.7,3.2C0,47.6,2.1,49,7.8,49c5.4,0,8.6-2,8.6-5.6c0-4.5-3.5-4.3-11.6-4.8l1-1.6
	c2.1,0.6,9.1,0.8,9.1-5.2c0-1.1-0.4-2.3-1.1-3.1l2.9-0.2L16.5,25.6z M11.6,44.1c0,2.5-8,2.5-8,0.2c0.1-0.6,0.4-1.2,0.8-1.6
	C10.3,43.1,11.6,42.9,11.6,44.1L11.6,44.1z M7.7,33.8c-4,0-3.9-5.4,0.1-5.4c1.5-0.1,2.8,1.1,2.9,2.6s-1.1,2.8-2.6,2.9
	C8,33.9,7.8,33.9,7.7,33.8L7.7,33.8z M17.9,41.5V39c2-0.3,2.1-0.2,2.1-0.8v-9.1c0-0.7-0.2-0.6-2.1-1.2l0.4-2.6h6.4v12.9
	c0,0.5,0,0.6,0.5,0.6l1.6,0.2v2.5H17.9z M21.9,22.8c-1.4,0.1-2.7-0.9-2.8-2.3c0-0.2,0-0.3,0-0.5c0-1.8,1-2.7,2.8-2.7s2.8,1,2.8,2.7
	c0.1,1.4-0.9,2.7-2.3,2.8C22.3,22.9,22.1,22.9,21.9,22.8L21.9,22.8z M39.1,40.3c-1.6,0.8-3.3,1.2-5.1,1.2c-3.7,0-5.1-1.5-5.1-5v-8.2
	c0-0.4,0.1-0.3-2.4-0.3v-2.7c2.7-0.3,3.8-1.7,4.2-5.1h3c0,5-0.1,4.7,0.2,4.7h4.4V28h-4.6v7.4c0,0.5-0.4,3.9,4.6,2.1L39.1,40.3z"/>
</svg>
