<?xml version="1.0" encoding="utf-8"?>
<!-- Generator: Adobe Illustrator 23.0.0, SVG Export Plug-In . SVG Version: 6.00 Build 0)  -->
<svg version="1.1" id="Capa_1" xmlns="http://www.w3.org/2000/svg" xmlns:xlink="http://www.w3.org/1999/xlink" x="0px" y="0px"
	 viewBox="0 0 39 49" style="enable-background:new 0 0 39 49;" xml:space="preserve">
<style type="text/css">
	.st0{enable-background:new    ;}
	.st1{fill:#FFFFFF;}
</style>
<g class="st0">
	<path class="st1" d="M2.9,48.6V19.5h5.7v29.1H2.9z"/>
	<path class="st1" d="M22.7,49c-1.5,0-2.8-0.3-4.1-0.9c-1.3-0.6-2.3-1.4-3.2-2.4c-0.9-1-1.6-2.2-2.1-3.5c-0.5-1.4-0.8-2.8-0.8-4.4
		c0-1.6,0.2-3,0.7-4.3c0.5-1.3,1.1-2.5,2-3.5c0.8-1,1.9-1.8,3-2.4c1.2-0.6,2.5-0.9,3.9-0.9c1.6,0,3,0.4,4.3,1.1c1.3,0.8,2.3,1.8,3,3
		V18.7h5.5v23.6c0,0.6,0.1,1,0.3,1.2c0.2,0.2,0.5,0.4,1,0.4v4.7c-1,0.2-1.7,0.3-2.3,0.3c-1,0-1.8-0.2-2.4-0.7s-1-1.1-1.1-1.9
		l-0.1-1.4c-0.8,1.4-1.9,2.4-3.2,3.1C25.6,48.7,24.2,49,22.7,49z M24.2,44.4c0.5,0,1.1-0.1,1.6-0.3s1.1-0.4,1.5-0.8
		c0.5-0.3,0.9-0.7,1.3-1.1c0.4-0.4,0.6-0.9,0.8-1.4v-5.1c-0.2-0.6-0.5-1.2-0.9-1.7s-0.8-0.9-1.4-1.3c-0.6-0.4-1-0.7-1.6-0.9
		s-1.1-0.3-1.7-0.3c-0.8,0-1.6,0.2-2.3,0.5c-0.7,0.4-1.3,0.8-1.8,1.5c-0.5,0.6-0.9,1.3-1.1,2.1c-0.3,0.8-0.4,1.6-0.4,2.5
		s0.1,1.7,0.5,2.5c0.3,0.8,0.7,1.4,1.2,2s1.1,1,1.9,1.4C22.6,44.4,23.3,44.4,24.2,44.4z"/>
</g>
</svg>
