<?xml version="1.0" encoding="utf-8"?>
<!-- Generator: Adobe Illustrator 23.0.0, SVG Export Plug-In . SVG Version: 6.00 Build 0)  -->
<svg version="1.1" id="Capa_1" xmlns="http://www.w3.org/2000/svg" xmlns:xlink="http://www.w3.org/1999/xlink" x="0px" y="0px"
	 viewBox="0 0 39 49" style="enable-background:new 0 0 39 49;" xml:space="preserve">
<style type="text/css">
	.st0{fill:#FFFFFF;}
</style>
<path id="Trazado_72" class="st0" d="M34.7,10.1H4.3c-2.3,0-4.2,1.9-4.2,4.2v30.5C0.1,47.1,2,49,4.3,49h30.5c2.3,0,4.2-1.9,4.2-4.2
	V14.3C38.9,12,37,10.1,34.7,10.1z M21.2,40.4c0,3.8-2.2,5.5-5.4,5.5c-2.3,0.1-4.5-1.2-5.5-3.3l3-1.8c0.6,1,1.1,1.9,2.3,1.9
	s2-0.5,2-2.3V27.9h3.6L21.2,40.4L21.2,40.4z M29.8,45.9c-3.4,0-5.6-1.6-6.6-3.7l3-1.7c0.7,1.4,2.1,2.2,3.6,2.2s2.5-0.7,2.5-1.8
	c0-1.2-1-1.7-2.7-2.4l-0.9-0.4c-2.6-1.1-4.4-2.5-4.4-5.5c0-2.7,2.1-4.8,5.3-4.8c2.2-0.2,4.2,1,5.2,2.9L32,32.4
	c-0.4-1-1.3-1.6-2.3-1.6c-0.9-0.1-1.6,0.6-1.7,1.4v0.1c0,1.1,0.7,1.5,2.2,2.2l0.8,0.6c3.1,1.3,4.8,2.7,4.8,5.7
	C35.9,44.1,33.3,45.9,29.8,45.9L29.8,45.9z"/>
</svg>
