<?xml version="1.0" encoding="utf-8"?>
<!-- Generator: Adobe Illustrator 23.0.0, SVG Export Plug-In . SVG Version: 6.00 Build 0)  -->
<svg version="1.1" id="Capa_1" xmlns="http://www.w3.org/2000/svg" xmlns:xlink="http://www.w3.org/1999/xlink" x="0px" y="0px"
	 viewBox="0 0 39 49" style="enable-background:new 0 0 39 49;" xml:space="preserve">
<style type="text/css">
	.st0{fill:#FFFFFF;}
</style>
<path id="Trazado_73" class="st0" d="M19.5,49c-0.6,0-1.1-0.1-1.6-0.4l-5.1-3c-0.8-0.4-0.4-0.6-0.1-0.7c0.8-0.3,1.6-0.6,2.3-1
	c0.1-0.1,0.3,0,0.4,0l3.9,2.3c0.1,0.1,0.3,0.1,0.5,0L35,37.4c0.1-0.1,0.2-0.2,0.2-0.4V19.4c0-0.2-0.1-0.3-0.2-0.4l-15.3-8.7
	c-0.1-0.1-0.3-0.1-0.5,0L4.1,19c-0.1,0.1-0.2,0.2-0.2,0.4v17.5c0,0.2,0.1,0.3,0.2,0.4l4.2,2.4c2.3,1.1,3.6-0.2,3.6-1.5V20.9
	c0-0.2,0.2-0.4,0.4-0.4l0,0h1.9c0.2,0,0.4,0.2,0.4,0.4v17.3c0,3-1.6,4.7-4.5,4.7c-1.2,0-2.4-0.3-3.5-1l-4-2.3C1.6,39,1,38,1,36.8
	V19.4c0-1.1,0.6-2.2,1.6-2.8l15.2-8.8c1-0.5,2.2-0.5,3.2,0l15.2,8.8c1,0.6,1.6,1.6,1.6,2.8v17.5c0,1.1-0.6,2.2-1.6,2.8l-15.1,8.8
	C20.6,48.8,20.1,49,19.5,49z M31.8,31.7c0-3.3-2.2-4.2-6.9-4.8c-4.7-0.6-5.2-0.9-5.2-2c0-0.9,0.4-2.1,3.9-2.1c3.1,0,4.3,0.7,4.7,2.8
	c0,0.2,0.2,0.3,0.4,0.3h2c0.1,0,0.2-0.1,0.3-0.1c0.1-0.1,0.1-0.2,0.1-0.3c-0.3-3.6-2.7-5.3-7.6-5.3c-4.3,0-6.9,1.8-6.9,4.9
	c0,3.3,2.6,4.2,6.7,4.7c5,0.5,5.4,1.2,5.4,2.2c0,1.7-1.4,2.4-4.6,2.4c-4,0-4.9-1-5.2-3c0-0.2-0.2-0.4-0.4-0.4h-2
	c-0.2,0-0.4,0.2-0.4,0.4l0,0c0,2.6,1.4,5.6,8,5.6C29,36.9,31.8,35,31.8,31.7L31.8,31.7z"/>
</svg>
