<?xml version="1.0" encoding="utf-8"?>
<!-- Generator: Adobe Illustrator 23.0.0, SVG Export Plug-In . SVG Version: 6.00 Build 0)  -->
<svg version="1.1" id="Capa_1" xmlns="http://www.w3.org/2000/svg" xmlns:xlink="http://www.w3.org/1999/xlink" x="0px" y="0px"
	 viewBox="0 0 39 49" style="enable-background:new 0 0 39 49;" xml:space="preserve">
<style type="text/css">
	.st0{enable-background:new    ;}
	.st1{fill:#FFFFFF;}
</style>
<g class="st0">
	<path class="st1" d="M1.5,49V21.3h11.7c1.3,0,2.5,0.3,3.5,0.8c1.1,0.5,2,1.2,2.8,2.1s1.4,1.9,1.8,3c0.4,1.1,0.7,2.2,0.7,3.3
		c0,1.2-0.2,2.3-0.6,3.4c-0.4,1.1-1,2.1-1.8,2.9c-0.8,0.9-1.7,1.5-2.7,2.1c-1.1,0.5-2.2,0.8-3.5,0.8H6.9V49C6.9,49,1.5,49,1.5,49z
		 M6.9,35h6.2c1,0,1.8-0.4,2.5-1.2c0.7-0.8,1-1.9,1-3.3c0-0.7-0.1-1.3-0.3-1.9c-0.2-0.6-0.5-1-0.8-1.4c-0.3-0.4-0.7-0.7-1.2-0.9
		c-0.5-0.2-0.9-0.3-1.4-0.3h-6C6.9,26,6.9,35,6.9,35z"/>
	<path class="st1" d="M37.5,33.1c-1.6,0-3,0.3-4.3,0.9s-2.1,1.5-2.7,2.6V49h-5.2V28.5h4.8v4.4c0.4-0.7,0.8-1.3,1.3-1.9
		c0.5-0.6,1-1,1.6-1.5c0.6-0.4,1.2-0.7,1.7-1c0.6-0.2,1.2-0.3,1.7-0.3c0.3,0,0.5,0,0.6,0s0.3,0,0.4,0v4.9H37.5z"/>
</g>
</svg>
