<?xml version="1.0" encoding="utf-8"?>
<!-- Generator: Adobe Illustrator 23.0.0, SVG Export Plug-In . SVG Version: 6.00 Build 0)  -->
<svg version="1.1" id="Capa_1" xmlns="http://www.w3.org/2000/svg" xmlns:xlink="http://www.w3.org/1999/xlink" x="0px" y="0px"
	 viewBox="0 0 39 49" style="enable-background:new 0 0 39 49;" xml:space="preserve">
<style type="text/css">
	.st0{fill:#FFFFFF;}
</style>
<path id="Trazado_75" class="st0" d="M19.5,10.4C8.8,10.4,0.2,19,0.2,29.7S8.8,49,19.5,49s19.3-8.6,19.3-19.3l0,0
	C38.8,19,30.1,10.4,19.5,10.4z M2.2,29.7c0-2.4,0.5-4.8,1.5-7.1L12,45.3C6,42.4,2.2,36.3,2.2,29.7L2.2,29.7z M19.5,47
	c-1.7,0-3.3-0.2-4.9-0.7l5.2-15.1l5.3,14.6c0,0.1,0.1,0.2,0.1,0.2C23.4,46.7,21.5,47,19.5,47z M21.9,21.6c1-0.1,2-0.2,2-0.2
	c0.4,0,0.7-0.4,0.6-0.8c0-0.4-0.4-0.7-0.8-0.6c0,0-2.8,0.2-4.6,0.2c-1.7,0-4.6-0.2-4.6-0.2c-0.4,0-0.7,0.3-0.8,0.7
	c0,0.4,0.3,0.7,0.6,0.8c0,0,0.9,0.1,1.8,0.2l2.7,7.4L15,40.5L8.9,21.6c1-0.1,2-0.2,2-0.2c0.4,0,0.7-0.4,0.6-0.8
	c0-0.4-0.4-0.7-0.8-0.6c0,0-2.8,0.2-4.6,0.2c-0.3,0-0.7,0-1.1,0c5.3-8,16-10.2,24-5c0.8,0.5,1.5,1.1,2.2,1.7c-0.1,0-0.1,0-0.2,0
	c-1.7,0.1-3,1.4-2.9,3.1c0,1.4,0.8,2.6,1.7,4.1c0.9,1.4,1.4,3.1,1.4,4.8c0,1.5-0.6,3.2-1.3,5.6l-1.7,5.8L21.9,21.6L21.9,21.6z
	 M28.2,44.7l5.3-15.3c0.8-2,1.3-4.1,1.3-6.2c0-0.6,0-1.2-0.1-1.8C39.2,29.6,36.3,40,28.2,44.7L28.2,44.7z"/>
</svg>
