<?xml version="1.0" encoding="utf-8"?>
<!-- Generator: Adobe Illustrator 23.0.0, SVG Export Plug-In . SVG Version: 6.00 Build 0)  -->
<svg version="1.1" id="Capa_1" xmlns="http://www.w3.org/2000/svg" xmlns:xlink="http://www.w3.org/1999/xlink" x="0px" y="0px"
	 viewBox="0 0 39 49" style="enable-background:new 0 0 39 49;" xml:space="preserve">
<style type="text/css">
	.st0{enable-background:new    ;}
	.st1{fill:#FFFFFF;}
</style>
<g class="st0">
	<path class="st1" d="M4.8,26.1l5.6,8.4l5.6-8.4h4.7l-8.1,11.5l7.8,11.2h-4.7l-5.4-8.1L5,48.7H0.3l7.8-11.2L0,26.1H4.8z"/>
	<path class="st1" d="M28.6,49c-1.1,0-2.2-0.2-3.2-0.7c-1-0.4-1.8-1.1-2.5-1.8c-0.7-0.8-1.2-1.7-1.6-2.8c-0.4-1.1-0.6-2.2-0.6-3.4
		c0-1.2,0.2-2.3,0.6-3.4c0.4-1,0.9-2,1.5-2.7c0.7-0.8,1.4-1.4,2.4-1.8c0.9-0.4,1.9-0.7,3-0.7c1.2,0,2.3,0.3,3.3,0.9
		c1,0.6,1.8,1.4,2.3,2.3v-9.5H38v18.4c0,0.4,0.1,0.8,0.2,1c0.1,0.2,0.4,0.3,0.8,0.3v3.6c-0.7,0.1-1.3,0.2-1.8,0.2
		c-0.8,0-1.4-0.2-1.9-0.6c-0.5-0.4-0.8-0.9-0.8-1.5l-0.1-1.1c-0.6,1.1-1.4,1.9-2.5,2.4C30.8,48.7,29.7,49,28.6,49z M29.7,45.4
		c0.4,0,0.8-0.1,1.2-0.2c0.4-0.1,0.8-0.3,1.2-0.6c0.4-0.3,0.7-0.6,1-0.9s0.5-0.7,0.7-1.1v-4c-0.2-0.5-0.4-0.9-0.7-1.3
		c-0.3-0.4-0.7-0.7-1.1-1c-0.4-0.3-0.8-0.5-1.2-0.7c-0.4-0.2-0.9-0.3-1.3-0.3c-0.6,0-1.2,0.1-1.8,0.4c-0.5,0.3-1,0.7-1.4,1.1
		c-0.4,0.5-0.7,1-0.9,1.6c-0.2,0.6-0.3,1.3-0.3,1.9c0,0.7,0.1,1.3,0.4,1.9c0.2,0.6,0.6,1.1,1,1.6c0.4,0.4,0.9,0.8,1.4,1.1
		C28.4,45.2,29,45.4,29.7,45.4z"/>
</g>
</svg>
