<?xml version="1.0" encoding="utf-8"?>
<!-- Generator: Adobe Illustrator 23.0.0, SVG Export Plug-In . SVG Version: 6.00 Build 0)  -->
<svg version="1.1" id="Capa_1" xmlns="http://www.w3.org/2000/svg" xmlns:xlink="http://www.w3.org/1999/xlink" x="0px" y="0px"
	 viewBox="0 0 500 500" style="enable-background:new 0 0 500 500;" xml:space="preserve">
<style type="text/css">
	.st0{fill:#08090A;}
</style>
<g>
	<g>
		<g>
			<polygon points="481.7,446.5 481.7,477.9 446.4,446.5 446.4,500 456.2,500 456.2,470 491.5,500 491.5,446.5 			"/>
		</g>
		<g>
			<g>
				<rect x="330" y="468.3" width="30.7" height="9.8"/>
			</g>
			<g>
				<rect x="338.3" y="446.5" width="41" height="9.8"/>
			</g>
			<g>
				<rect x="338.3" y="490.2" width="41" height="9.8"/>
			</g>
		</g>
		<g>
			<polygon points="8.5,500 19.2,500 32.3,470.7 45.3,500 56.1,500 32.3,446.5 			"/>
		</g>
		<g>
			<polygon points="155.8,446.5 141.8,477.8 127.9,446.5 117.1,446.5 125.5,465.4 125.5,465.4 135.1,487 140.9,500 151.7,500 
				147.2,489.9 166.6,446.5 			"/>
		</g>
		<g>
			<path d="M253.2,468.3h-9.9c-1.7,0-3-0.6-4.2-1.8c-1.2-1.2-1.8-2.5-1.8-4.2c0-1.7,0.6-3,1.8-4.3c1.2-1.2,2.5-1.7,4.2-1.7h23.1
				v-9.8h-23.1c-4.3,0-8.1,1.6-11.2,4.6c-3.1,3.1-4.6,6.8-4.6,11.2c0,4.3,1.6,8.1,4.6,11.2c3.1,3.1,6.8,4.6,11.2,4.6h9.9
				c1.7,0,3,0.6,4.2,1.7c1.2,1.2,1.8,2.6,1.8,4.3c0,1.7-0.6,3-1.8,4.2c-1.2,1.2-2.5,1.8-4.2,1.8h-23.2l4.3,9.8h18.8
				c4.3,0,8.1-1.6,11.2-4.6c3.1-3.1,4.6-6.8,4.6-11.2c0-4.3-1.6-8.1-4.6-11.2C261.3,469.9,257.6,468.3,253.2,468.3z"/>
		</g>
	</g>
	<g>
		<polygon class="st0" points="250,0 43.5,357.7 113,357.7 250,120.3 387,357.7 456.5,357.7 		"/>
	</g>
</g>
</svg>
