<?xml version="1.0" encoding="utf-8"?>
<!-- Generator: Adobe Illustrator 23.0.0, SVG Export Plug-In . SVG Version: 6.00 Build 0)  -->
<svg version="1.1" id="Capa_1" xmlns="http://www.w3.org/2000/svg" xmlns:xlink="http://www.w3.org/1999/xlink" x="0px" y="0px"
	 viewBox="0 0 1080 1080" style="enable-background:new 0 0 1080 1080;" xml:space="preserve">
<style type="text/css">
	.st0{display:none;}
	.st1{fill:#FFFFFF;}
</style>
<g class="st0">
</g>
<path class="st1" d="M202.4,608.3l-71.7,4.3c-5.4,0.3-10.6-1.8-14.1-5.9c-4.3-5-12.2-12.4-26.1-20.4c-25-14.5-83.4-80-89.2-103.3
	c-5.9-23.3,9.6-21,21-6.9c8.7,10.8,33.7,38.1,54.1,53.3c6.4,4.8,15.2,4.1,21.2-1.2c5.8-5.1,17.8-4,36,8.1
	c26.9,18.1,71.1,30.9,78,39.8c1.5,2,2.9,3.9,4.1,5.8C222.9,592.9,215.5,607.5,202.4,608.3z"/>
<path class="st1" d="M871.5,607.9l79.9,4.7c4.3,0.3,8.4-1.6,11.1-4.9c4-5,12-12.9,27-21.6c25-14.5,83.4-80,89.2-103.3
	c5.9-23.3-9.6-21-21-6.9c-9,11.2-35.9,40.5-56.8,55.3c-5.5,3.9-13.1,3.1-17.4-2c-5.3-6.3-17.7-6-37.1,7
	c-26.9,18.1-71.1,30.9-78,39.8c-3.4,4.5-6.4,8.8-8.4,13.8C856.6,598.2,862.6,607.4,871.5,607.9z"/>
<g>
	<path class="st1" d="M793.3,494.6l-23.2-126.8c-20.5-112.3-128.3-186.7-240.6-166.2l-103.6,18.9
		c-112.3,20.5-186.7,128.3-166.2,240.6l23.1,125.6c-0.1,0.1,16.9-15.2,16.9-15.2l19.3,53.3c19.5-44.9,33.7-92.5,41.9-142.1
		c16.5,1.4,33.1,2,50,2c97,0,188.8-22.5,270.4-62.8c24.4,41.9,53.8,80.8,87.2,115.6v-56.1C768.5,481.5,793.5,494.8,793.3,494.6z"/>
</g>
<path class="st1" d="M966.9,653.7c0-17.3-9.6-21-14.1-21s-80.8-4-96.1-4.4c-15.2-0.4-16.6,14.4-16.6,25.9c0,11.6-36,270.9-36,270.9
	l-18.7-24.6l16.9-112.2c0,0-19.8-27.4-72.1-47.6c-32,41.7-78.1,72.1-131.2,83.7c-9.6,22-29.2,41.2-59.1,41.2
	c-32.6,0-53-23-61.5-47.4c-45.7-15.2-85.1-44.7-112.6-83.1c-64.5,20.3-88.3,53.3-88.3,53.3l16.9,112.2l-18.7,24.8
	c0,0-36-259.3-36-270.9c0-11.6-1.4-26.4-16.6-25.9c-15.2,0.4-91.7,4.4-96.1,4.4s-14.1,3.6-14.1,21c0,17.4-3.3,281.2-3.3,328
	c0,46.8,28.4,100.4,107.3,100.4s111.4-63.8,111.4-63.8v63.8H540h211.5v-63.8c0,0,32.5,63.8,111.4,63.8s107.3-53.8,107.3-100.4
	C970.2,934.9,966.9,671,966.9,653.7z"/>
<g>
	<path class="st1" d="M531.6,707.8l-2.3-10c-5-19.6-2.3-41.1,11.1-65.5c9.6-17.2,17.3-31.6,14.7-44.8c-2.6-13.6-13.3-20.8-32.9-17.8
		c-12.8,2.5-27.5,10.2-36.3,19.1l-21.4-39.8c12.4-10.9,34.3-23.2,61.9-28.5c51.3-9.9,80.2,13.9,86.4,46.2
		c5.7,29.6-8.8,52.6-20.4,71.8c-11.3,18.7-14.2,35-10.4,52.5l1.4,7L531.6,707.8z M531.9,763.5c-4-20.6,7.5-38.2,27.8-42.1
		c21-4.1,37.5,8.1,41.9,28.6c3.9,20.2-7.2,38.1-28.2,42.2C552.7,796.2,535.8,783.7,531.9,763.5z"/>
</g>
</svg>
