<?xml version="1.0" encoding="utf-8"?>
<!-- Generator: Adobe Illustrator 25.2.1, SVG Export Plug-In . SVG Version: 6.00 Build 0)  -->
<svg version="1.1" id="Capa_1" xmlns="http://www.w3.org/2000/svg" xmlns:xlink="http://www.w3.org/1999/xlink" x="0px" y="0px"
	 viewBox="0 0 1206.4 1206.4" style="enable-background:new 0 0 1206.4 1206.4;" xml:space="preserve">
<style type="text/css">
	.st0{fill:#FFFFFF;}
	.st1{fill:#5CA344;}
</style>
<g>
	<g>
		<path class="st0" d="M509.5,671.1c-7.1,6.8-14.7,11.8-22.7,14.9c-8.1,3.1-16.1,4.5-24.2,4.3c-8.1-0.3-15.8-2.1-23.4-5.5
			c-7.5-3.4-14.2-8.1-20-14.2c-6.1-6.3-10.7-13.3-14-20.9c-3.2-7.6-4.9-15.5-4.9-23.6c0-8.1,1.7-16.2,5.1-24.3
			c3.4-8.1,8.7-15.6,15.9-22.5c7.2-6.9,14.8-11.9,22.9-14.9c8.1-3,16.1-4.3,24.1-4c8,0.3,15.7,2.2,23.1,5.7
			c7.4,3.5,14,8.2,19.7,14.2c1.4,1.5,2.7,2.9,4,4.3c1.2,1.4,2.2,2.7,2.8,3.8l-68.3,65.9c3.7,3.2,7.5,5.4,11.5,6.8
			c4,1.4,7.9,2,11.9,1.9c4-0.1,7.8-1,11.5-2.6c3.7-1.6,7-3.8,9.9-6.6c4.5-4.3,7.7-9.5,9.6-15.6c1.6-5,1.8-9.6,0.7-13.9
			c-0.4-1.6,0.3-3.3,1.8-4.1l17.9-9.7c2.1-1.2,4.8,0.1,5.3,2.4c1.9,8.5,1.6,17.6-0.9,27C525.9,651.2,519.4,661.6,509.5,671.1z
			 M481.1,595.7c-7-6.1-14.5-9.1-22.7-8.9c-8.2,0.2-15.4,3.3-21.6,9.2c-3,2.9-5.4,6.2-7,9.8c-1.6,3.6-2.5,7.4-2.7,11.2
			c-0.2,3.9,0.4,7.8,1.7,11.7c1.3,3.9,3.4,7.7,6.3,11.1L481.1,595.7z"/>
		<path class="st0" d="M538.8,604.5c0-10.2,1.8-20.2,5.5-30.1c3.7-9.9,9-18.8,16.1-26.6c7-7.8,15.6-14.1,25.8-19
			c10.2-4.8,21.7-7.3,34.7-7.3c15.3,0,28.6,3.4,39.7,10.1c10.1,6.1,17.9,13.8,23.3,23.3c1,1.7,0.5,3.8-1.1,4.9l-18.7,12.9
			c-1.8,1.2-4.2,0.7-5.3-1.2c-1.8-3.1-3.8-5.9-6.1-8.2c-3.1-3.2-6.5-5.7-10.1-7.6c-3.6-1.9-7.3-3.2-11.3-4.1
			c-3.9-0.9-7.7-1.3-11.5-1.3c-8.1,0-15.2,1.6-21.2,4.9c-6,3.3-11,7.5-15,12.8c-4,5.2-7,11.2-9,17.8c-2,6.6-3,13.2-3,19.8
			c0,7.3,1.2,14.4,3.5,21.2c2.3,6.8,5.7,12.8,10,17.9c4.3,5.2,9.5,9.3,15.5,12.4c6,3.1,12.6,4.7,19.8,4.7c3.8,0,7.7-0.5,11.7-1.4
			c4.1-0.9,7.9-2.4,11.6-4.5c3.7-2,7.1-4.6,10.2-7.9c2.3-2.3,4.2-5.1,5.9-8.1c1-1.9,3.3-2.5,5.1-1.5l20.1,11.6
			c1.7,1,2.3,3.1,1.4,4.9c-2.5,4.9-5.8,9.4-9.9,13.3c-4.9,4.8-10.5,8.8-16.6,12.1c-6.2,3.3-12.8,5.8-19.8,7.5
			c-7,1.7-13.9,2.6-20.6,2.6c-11.9,0-22.7-2.5-32.6-7.5c-9.8-5-18.3-11.5-25.4-19.6c-7.1-8-12.7-17.2-16.6-27.4
			C540.8,625.5,538.8,615.1,538.8,604.5z"/>
		<path class="st0" d="M736.5,691.2c-5.9,0-11.5-1-16.6-2.9c-5.2-2-9.6-4.7-13.4-8.2s-6.7-7.6-8.8-12.3c-2.1-4.7-3.2-9.8-3.2-15.5
			c0-5.8,1.3-11.1,3.9-16.1c2.6-4.9,6.2-9.1,10.8-12.5c4.6-3.4,10.1-6.1,16.5-8.1c6.4-2,13.4-2.9,21.1-2.9c5.5,0,10.8,0.5,16.1,1.4
			c5.2,0.9,9.9,2.3,13.9,4v-7c0-8.1-2.3-14.4-6.9-18.8c-4.6-4.4-11.4-6.6-20.5-6.6c-6.6,0-13,1.2-19.2,3.5c-5.1,1.9-10.4,4.6-15.7,8
			c-1.9,1.2-4.3,0.5-5.3-1.5l-6.4-13.2c-0.8-1.7-0.2-3.7,1.4-4.7c15-9.3,31.1-13.9,48.3-13.9c17.7,0,31.4,4.3,41.1,13
			c9.8,8.7,14.7,21.2,14.7,37.6v38.2c0,3.3,0.6,5.6,1.8,7c0.7,0.9,1.8,1.5,3.1,1.9c1.6,0.5,2.7,1.9,2.7,3.5v20.6
			c0,1.8-1.3,3.3-3,3.6c-4.1,0.7-7.6,1.1-10.8,1.1c-5.9,0-10.5-1.3-13.7-4c-3.2-2.7-5.2-6.2-6-10.5l-0.7-6.8
			c-5.5,7.2-12.1,12.7-19.9,16.4C753.8,689.3,745.4,691.2,736.5,691.2z M745.4,668.2c5.3,0,10.4-0.9,15.1-2.8
			c4.8-1.9,8.2-4.6,11.1-7.5c2.3-2.3,5.2-5.6,5.2-8.9v-14.1c-3.8-1.4-7.8-2.5-12.2-3.4c-4.4-0.9-8.6-1.3-12.7-1.3
			c-8.1,0-14.8,1.8-19.9,5.5c-5.2,3.7-7.7,8.3-7.7,13.9c0,5.3,2,9.7,6.1,13.2C734.5,666.5,739.5,668.2,745.4,668.2z"/>
		<path class="st0" d="M879.5,691.2c-8.4,0-16.3-1.6-23.4-4.9c-7.2-3.3-13.4-7.8-18.5-13.6c-5.2-5.8-9.2-12.5-12.1-20.3
			c-2.9-7.7-4.3-16.1-4.3-25s1.4-17.2,4.1-24.8c2.7-7.7,6.5-14.4,11.4-20.2c4.8-5.8,10.6-10.3,17.3-13.6c6.7-3.3,14.1-4.9,22-4.9
			c9.1,0,17.2,2.2,24.5,6.6c7.3,4.4,12.9,10.1,17,17.1v-66.2c0-2,1.6-3.7,3.7-3.7h24c2,0,3.7,1.6,3.7,3.7v131.3c0,3.3,0.5,5.6,1.6,7
			c0.7,0.9,1.7,1.5,3,1.9c1.6,0.5,2.7,1.9,2.7,3.5v20.6c0,1.8-1.3,3.3-3.1,3.6c-4.1,0.7-7.5,1.1-10.3,1.1c-5.6,0-10.2-1.4-13.8-4.2
			c-3.6-2.8-5.6-6.5-6.1-11l-0.7-7.7c-4.5,7.8-10.7,13.7-18.4,17.7C896.1,689.2,888,691.2,879.5,691.2z M887.7,664.5
			c3,0,6-0.5,9.1-1.5c3.1-1,6-2.5,8.7-4.3c2.7-1.9,5-4.1,7.1-6.6c2.1-2.5,3.7-5.2,4.8-8.2v-29.3c-1.3-3.4-3-6.6-5.3-9.5
			c-2.3-2.9-4.8-5.4-7.7-7.5c-2.9-2.1-5.9-3.8-9.1-5c-3.2-1.2-6.4-1.9-9.5-1.9c-4.7,0-9,1-13,3c-4,2-7.4,4.8-10.2,8.3
			c-2.8,3.5-5,7.5-6.6,12.1c-1.6,4.5-2.3,9.2-2.3,14.1c0,5.2,0.9,9.9,2.6,14.3c1.7,4.4,4.1,8.2,7,11.5c3,3.3,6.5,5.9,10.7,7.7
			C878.2,663.5,882.7,664.5,887.7,664.5z"/>
		<path class="st0" d="M1002.7,691.2c-12.7,0-22.3-4.1-28.8-12.2c-6.6-8.1-9.8-20.2-9.8-36.1v-73.2c0-2,1.6-3.7,3.7-3.7h24
			c2,0,3.7,1.6,3.7,3.7v66.4c0,18.9,6.8,28.4,20.4,28.4c6.1,0,12-1.8,17.7-5.5c5.7-3.7,10.4-9.3,13.9-16.8v-72.5
			c0-2,1.6-3.7,3.7-3.7h24c2,0,3.7,1.6,3.7,3.7v83.1c0,3.3,0.6,5.6,1.8,7c0.7,0.9,1.8,1.5,3.1,1.9c1.6,0.5,2.7,1.9,2.7,3.5v20.6
			c0,1.8-1.3,3.3-3.1,3.6c-1.8,0.3-3.4,0.5-4.8,0.6c-2.1,0.2-4,0.2-5.7,0.2c-5.6,0-10.2-1.3-13.7-3.9c-3.5-2.6-5.6-6.1-6.2-10.7
			l-0.7-9.8c-5.5,8.4-12.5,14.8-21.1,19C1022.4,689.1,1013,691.2,1002.7,691.2z"/>
		<path class="st0" d="M1123.8,567.6l25.4,36.9l1.9,4.2l2.3-4.2l25.2-36.8c0.7-1,1.8-1.6,3-1.6h23.3c3,0,4.7,3.4,3,5.8l-39.7,55.8
			l40.3,55.3c1.8,2.4,0,5.8-3,5.8h-23.2c-1.2,0-2.3-0.6-3-1.5l-26.1-36.7l-2.1-4l-1.9,4l-25.9,36.6c-0.7,1-1.8,1.6-3,1.6h-23.2
			c-3,0-4.7-3.4-3-5.8l40.1-55.3l-39.5-55.8c-1.7-2.4,0-5.8,3-5.8h23.1C1121.9,566,1123.1,566.6,1123.8,567.6z"/>
	</g>
	<g>
		<path class="st1" d="M213.4,517.7h-50.9c-3.2,0-4.5,4-2,5.9c1.7,1.3,3.3,2.7,4.8,4.3c24,24.9,15.9,44.1-1.1,60.5l0,0L-1.7,748.4
			c-2.1,2.1-0.7,5.7,2.3,5.7h52.3c0.9,0,1.7-0.3,2.3-0.9l151-145.6c47-45.3,24.4-73.2,9.5-88.7C215.1,518.1,214.3,517.7,213.4,517.7
			z"/>
		<path class="st1" d="M217.5,688.6h50.9c3.2,0,4.5-4,2-5.9c-1.7-1.3-3.3-2.7-4.8-4.3c-24-24.9-15.9-44.1,1.1-60.5l0,0l165.8-159.8
			c2.1-2.1,0.7-5.7-2.3-5.7h-52.3c-0.9,0-1.7,0.3-2.3,0.9l-151,145.5c-47,45.3-24.4,73.2-9.5,88.7
			C215.7,688.2,216.6,688.6,217.5,688.6z"/>
		<path class="st1" d="M278.4,517.7h-5.9h-3.2h-16.8H250h-6.7c-2.9,0-4.5,3.2-2.9,5.6l14.3,20.1c1.2,1.8,3.8,2,5.3,0.5l20.9-20.1
			C283.1,521.6,281.5,517.7,278.4,517.7z"/>
		<path class="st1" d="M190.5,683l-14.3-20.1c-1.2-1.8-3.8-2-5.3-0.5L150,682.5c-2.3,2.2-0.7,6.1,2.4,6.1h9.1c0,0,0,0,0,0h16.8h0
			h9.2C190.5,688.6,192.1,685.4,190.5,683z"/>
	</g>
</g>
</svg>
