<?xml version="1.0" encoding="utf-8"?>
<!-- Generator: Adobe Illustrator 23.0.0, SVG Export Plug-In . SVG Version: 6.00 Build 0)  -->
<svg version="1.1" id="Capa_1" xmlns="http://www.w3.org/2000/svg" xmlns:xlink="http://www.w3.org/1999/xlink" x="0px" y="0px"
	 viewBox="0 0 500 500" style="enable-background:new 0 0 500 500;" xml:space="preserve">
<style type="text/css">
	.st0{fill:url(#SVGID_1_);}
	.st1{fill:url(#SVGID_2_);}
	.st2{fill:url(#SVGID_3_);}
	.st3{fill:url(#SVGID_4_);}
	.st4{fill:#08090A;}
</style>
<g>
	
		<linearGradient id="SVGID_1_" gradientUnits="userSpaceOnUse" x1="68.6" y1="388.75" x2="414.2" y2="388.75" gradientTransform="matrix(1 0 0 -1 0 500)">
		<stop  offset="0" style="stop-color:#427EC0"/>
		<stop  offset="1" style="stop-color:#34448F"/>
	</linearGradient>
	<polygon class="st0" points="414.2,45.3 157.4,45.3 68.6,177.2 125.7,177.2 184.9,89.3 384.7,89.3 	"/>
	
		<linearGradient id="SVGID_2_" gradientUnits="userSpaceOnUse" x1="169.1" y1="399.75" x2="500" y2="399.75" gradientTransform="matrix(1 0 0 -1 0 500)">
		<stop  offset="0" style="stop-color:#427EC0"/>
		<stop  offset="1" style="stop-color:#34448F"/>
	</linearGradient>
	<polygon class="st1" points="169.1,155.2 426.1,155.2 500,45.3 442,45.3 397.6,111.3 198.6,111.3 	"/>
	
		<linearGradient id="SVGID_3_" gradientUnits="userSpaceOnUse" x1="0" y1="229.35" x2="325.5" y2="229.35" gradientTransform="matrix(1 0 0 -1 0 500)">
		<stop  offset="0" style="stop-color:#427EC0"/>
		<stop  offset="1" style="stop-color:#34448F"/>
	</linearGradient>
	<polygon class="st2" points="0,364.1 125.7,177.2 325.5,177.2 296,221.2 153.2,221.2 57.1,364.1 	"/>
	
		<linearGradient id="SVGID_4_" gradientUnits="userSpaceOnUse" x1="85.6" y1="196.35" x2="281.2" y2="196.35" gradientTransform="matrix(1 0 0 -1 0 500)">
		<stop  offset="0" style="stop-color:#427EC0"/>
		<stop  offset="1" style="stop-color:#34448F"/>
	</linearGradient>
	<polygon class="st3" points="85.6,364.1 167,243.2 281.2,243.2 251.6,287.1 194.5,287.1 142.8,364.1 	"/>
	<g>
		<polygon class="st4" points="393.1,452 393.1,452 395.1,454.7 397.3,451.5 		"/>
	</g>
	<path class="st4" d="M396.9,452"/>
	<g>
		<path class="st4" d="M294.9,384.8c-19.1,0-33.5,15.4-33.5,34.3v0.2c0,18.9,14.2,34.1,33.3,34.1c19.1,0,33.5-15.4,33.5-34.3v-0.2
			C328.2,400,314,384.8,294.9,384.8z M310.7,419.3c0,9.5-6.3,17.6-15.8,17.6c-9.4,0-15.9-8.3-15.9-17.8v-0.2
			c0-9.5,6.3-17.6,15.7-17.6c9.5,0,15.9,8.3,15.9,17.8L310.7,419.3L310.7,419.3z"/>
		<path class="st4" d="M457.8,309.2h-17.4v15.4v21.6c0,9.2-4.5,13.6-11.4,13.6s-11.4-4.5-11.4-14v-36.5h-15.3h-2.1h-81.8h-4.6H301
			v37c0,9.2-4.5,13.6-11.4,13.6s-11.4-4.5-11.4-14v-36.6h-17.4v37c0,20.6,11.1,30.1,28.7,30.1s29-9.3,29-30.6v-20.5h31.8v49.9h17.2
			v-49.9h32.8v20.9c0,20.6,11.1,30.1,28.7,30.1s29-9.3,29-30.6v-21h24.7l10.4-15.4L457.8,309.2L457.8,309.2z"/>
		<path class="st4" d="M199.3,408.8v-0.2c0-6.5-1.9-11.6-5.5-15.4c-4.2-4.5-10.7-7.2-20.2-7.2h-17.9l-11.5,17v33.4h-22.5l-10.4,15.5
			h50.1l0,0l0,0v-20h7.4h0.2l12.5,20h19.8l-14.8-23C194.2,425.6,199.3,418.9,199.3,408.8z M182,409.9c0,4.8-3.4,7.8-9.2,7.8h-11.3
			v-15.8h11.3c5.8,0,9.3,2.6,9.3,7.8v0.2H182z"/>
		<polygon class="st4" points="240,336.4 213.2,336.4 213.2,325.2 245.6,325.2 245.6,309.2 207.5,309.2 196,326.2 196,359.5 
			173.6,359.5 163.1,375 196,375 196,375 213.2,375 213.2,351.5 240,351.5 		"/>
		<polygon class="st4" points="408.2,386.1 391.2,386.1 391.2,420.9 365.7,386.1 349.6,386.1 349.6,452 366.7,452 366.7,415.9 
			393.1,452 396.9,452 408.2,435.3 408.2,401.6 430.8,401.6 441.3,386.1 		"/>
		<polygon class="st4" points="314.7,386.1 329,386.1 336.3,375.2 322.1,375.2 		"/>
		<polygon class="st4" points="233.1,386.1 233.1,386.1 222.7,386.1 222.7,441.1 215.4,452 222.7,452 222.7,452 240,452 240,397 
			247.3,386.1 		"/>
	</g>
</g>
</svg>
