<?xml version="1.0" encoding="utf-8"?>
<!-- Generator: Adobe Illustrator 25.2.1, SVG Export Plug-In . SVG Version: 6.00 Build 0)  -->
<svg version="1.1" id="Grupo_47" xmlns="http://www.w3.org/2000/svg" xmlns:xlink="http://www.w3.org/1999/xlink" x="0px" y="0px"
	 viewBox="0 0 21.9 20.4" style="enable-background:new 0 0 21.9 20.4;" xml:space="preserve">
<style type="text/css">
	.st0{fill:#FFFFFF;}
</style>
<path class="st0" d="M20.1,5.2h-6.4V3.3h6.4V5.2z M21.7,14.3C21.3,15.5,19.8,17,17,17c-2.8,0-5.1-1.6-5.1-5.2c0-3.6,2.1-5.4,5-5.4
	c2.8,0,4.5,1.6,4.9,4c0.1,0.5,0.1,1.1,0.1,2h-7.3c0.1,2.9,3.2,3,4.2,1.9C18.8,14.3,21.7,14.3,21.7,14.3z M14.7,10.6h4.5
	c-0.1-1.4-1-2-2.3-2C15.6,8.6,14.9,9.3,14.7,10.6z M5.9,17H0V3.4h6.4c5,0.1,5.1,5,2.5,6.3C12,10.8,12.1,17,5.9,17z M2.7,8.8H6
	c2.3,0,2.7-2.7-0.3-2.7h-3C2.7,6.1,2.7,8.8,2.7,8.8z M5.8,11.6H2.7v2.8h3.1C8.6,14.3,8.4,11.6,5.8,11.6z"/>
</svg>
