<?xml version="1.0" encoding="utf-8"?>
<!-- Generator: Adobe Illustrator 23.0.0, SVG Export Plug-In . SVG Version: 6.00 Build 0)  -->
<svg version="1.1" id="Capa_1" xmlns="http://www.w3.org/2000/svg" xmlns:xlink="http://www.w3.org/1999/xlink" x="0px" y="0px"
	 viewBox="0 0 500 500" style="enable-background:new 0 0 500 500;" xml:space="preserve">
<style type="text/css">
	.st0{fill:#C6323D;}
</style>
<g>
	<path d="M19.7,408c-5.4,0-10.1-1.9-13.9-5.8c-3.8-3.8-5.8-8.5-5.8-13.9c0-5.4,1.9-10.1,5.8-13.9s8.5-5.8,13.9-5.8
		c5.4,0,10.1,1.9,13.9,5.8l-5.3,5.3c-2.4-2.4-5.2-3.5-8.6-3.5c-3.3,0-6.2,1.2-8.6,3.5c-2.4,2.4-3.5,5.2-3.5,8.6
		c0,3.3,1.2,6.2,3.5,8.6c2.4,2.4,5.2,3.5,8.6,3.5c2.8,0,5.3-0.9,7.5-2.5v-5.8h-9v-7.6h16.5v16.6l-1.1,1.1
		C29.7,406.1,25.1,408,19.7,408z"/>
	<path d="M91.6,408H84v-39.3h18.5c3.4,0,6.4,1.2,8.8,3.7c2.4,2.4,3.6,5.4,3.6,8.8c0,3-0.9,5.6-2.8,7.9c-1.8,2.3-4.2,3.7-7,4.3
		l11,14.6h-9.5l-10.8-14.4h-4.3V408z M91.6,386h11c1.4,0,2.5-0.5,3.5-1.5c1-1,1.4-2.1,1.4-3.5c0-1.4-0.5-2.5-1.4-3.5
		c-1-1-2.1-1.5-3.5-1.5h-11V386z"/>
	<path d="M199.3,408H191l-2-4.6h-16l-2,4.6h-8.3l18.3-41.1L199.3,408z M176.4,395.9h9.3l-4.6-10.4L176.4,395.9z"/>
	<path d="M279.6,381.1c0,3.5-1.2,6.4-3.6,8.8c-2.5,2.4-5.4,3.7-8.8,3.7h-11V408h-7.6v-39.3h18.5c3.4,0,6.4,1.2,8.8,3.7
		C278.4,374.7,279.6,377.7,279.6,381.1z M256.2,386h11c1.4,0,2.5-0.5,3.5-1.5c1-1,1.4-2.1,1.4-3.5c0-1.4-0.5-2.5-1.4-3.5
		c-1-1-2.1-1.5-3.5-1.5h-11V386z"/>
	<path d="M360.7,368.6V408h-7.6v-15.9h-16.6V408h-7.6v-39.3h7.6v15.9h16.6v-15.9H360.7z"/>
	<path d="M410,368.6h7.6V408H410V368.6z"/>
	<path d="M499.6,368.6l-16.2,17.1L500,408h-9.5l-12.5-16.6l-3.6,3.8V408h-7.6v-39.3h7.6v15.5l14.7-15.5H499.6z"/>
</g>
<g>
	<polygon points="417.4,125.2 293.3,1.1 206.7,1.1 82.6,125.2 250,292.7 350.5,192.2 300.2,142 283.5,158.7 317,192.2 250,259.2 
		116,125.2 216.5,24.8 283.5,24.8 400.7,142 	"/>
	<polygon points="250,225.7 149.5,125.2 226.3,48.5 273.7,48.5 384,158.7 367.2,175.5 263.9,72.1 236.1,72.1 183,125.2 250,192.2 
		266.7,175.5 283.5,192.2 	"/>
	<polygon class="st0" points="266.8,108.6 283.6,125.3 250.1,158.8 216.6,125.3 233.4,108.6 250.1,125.2 	"/>
</g>
</svg>
