<svg id="Grupo_46" data-name="Grupo 46" xmlns="http://www.w3.org/2000/svg" width="21.129" height="21.125" viewBox="0 0 21.129 21.125">
  <g id="Grupo_44" data-name="Grupo 44">
    <path id="instagram" d="M10.492,36.971a5.416,5.416,0,1,0,5.416,5.416A5.408,5.408,0,0,0,10.492,36.971Zm0,8.937a3.521,3.521,0,1,1,3.521-3.521,3.528,3.528,0,0,1-3.521,3.521Zm6.9-9.159a1.263,1.263,0,1,1-1.263-1.263A1.26,1.26,0,0,1,17.393,36.75Zm3.587,1.282a6.252,6.252,0,0,0-1.706-4.426A6.293,6.293,0,0,0,14.848,31.9c-1.744-.1-6.972-.1-8.716,0a6.284,6.284,0,0,0-4.426,1.7A6.272,6.272,0,0,0,0,38.027C-.1,39.771-.1,45,0,46.743a6.252,6.252,0,0,0,1.706,4.426,6.3,6.3,0,0,0,4.426,1.706c1.744.1,6.972.1,8.716,0a6.252,6.252,0,0,0,4.426-1.706,6.293,6.293,0,0,0,1.706-4.426c.1-1.744.1-6.967,0-8.711ZM18.727,48.614a3.565,3.565,0,0,1-2.008,2.008c-1.391.552-4.69.424-6.227.424s-4.841.123-6.227-.424a3.565,3.565,0,0,1-2.008-2.008c-.552-1.391-.424-4.69-.424-6.227s-.123-4.841.424-6.227a3.565,3.565,0,0,1,2.008-2.008c1.391-.552,4.69-.424,6.227-.424s4.841-.123,6.227.424a3.565,3.565,0,0,1,2.008,2.008c.552,1.391.424,4.69.424,6.227S19.279,47.228,18.727,48.614Z" transform="translate(0.075 -31.825)" fill="#fff"/>
  </g>
</svg>
