<svg id="Grupo_45" data-name="Grupo 45" xmlns="http://www.w3.org/2000/svg" width="20.319" height="20.319" viewBox="0 0 20.319 20.319">
  <g id="Grupo_42" data-name="Grupo 42" transform="translate(0 0)">
    <path id="linkedin" d="M18.868,32H1.447A1.458,1.458,0,0,0,0,33.465V50.854a1.458,1.458,0,0,0,1.447,1.465H18.868a1.461,1.461,0,0,0,1.451-1.465V33.465A1.461,1.461,0,0,0,18.868,32ZM6.141,49.416H3.129v-9.7H6.146v9.7ZM4.635,38.4a1.746,1.746,0,1,1,1.746-1.746A1.747,1.747,0,0,1,4.635,38.4ZM17.43,49.416H14.418V44.7c0-1.125-.023-2.572-1.565-2.572-1.569,0-1.81,1.225-1.81,2.49v4.8H8.032v-9.7h2.889v1.324h.041a3.172,3.172,0,0,1,2.853-1.565c3.048,0,3.615,2.009,3.615,4.622Z" transform="translate(0 -32)" fill="#fff"/>
  </g>
</svg>
