<?xml version="1.0" encoding="utf-8"?>
<!-- Generator: Adobe Illustrator 23.0.0, SVG Export Plug-In . SVG Version: 6.00 Build 0)  -->
<svg version="1.1" id="Capa_1" xmlns="http://www.w3.org/2000/svg" xmlns:xlink="http://www.w3.org/1999/xlink" x="0px" y="0px"
	 viewBox="0 0 1080 1080" style="enable-background:new 0 0 1080 1080;" xml:space="preserve">
<style type="text/css">
	.st0{fill:#FFFFFF;}
</style>
<g>
	<polygon class="st0" points="547.9,974 541.6,980.3 535.4,974 49.9,488.6 0.1,538.4 541.6,1080 1079.9,541.7 1030.1,491.8 	"/>
	<polygon class="st0" points="980.3,442.1 637.7,99.4 295,442.1 344.9,492 631.5,205.4 637.7,199.2 643.9,205.4 874.4,435.9 
		880.6,442.1 874.4,448.3 487.6,835.1 537.4,885 	"/>
	<polygon class="st0" points="95.5,443 438.1,785.7 780.8,443 635.1,297.3 392.6,539.7 442.5,589.6 628.8,403.3 635.1,397.1 
		641.3,403.3 674.8,436.8 681,443 674.8,449.3 444.3,679.7 438.1,685.9 431.9,679.7 201.4,449.3 195.2,443 201.4,436.8 588.2,50 
		538.4,0.1 	"/>
</g>
</svg>
