<?xml version="1.0" encoding="utf-8"?>
<!-- Generator: Adobe Illustrator 25.2.1, SVG Export Plug-In . SVG Version: 6.00 Build 0)  -->
<svg version="1.1" id="Capa_1" xmlns="http://www.w3.org/2000/svg" xmlns:xlink="http://www.w3.org/1999/xlink" x="0px" y="0px"
	 viewBox="0 0 1206.4 1206.4" style="enable-background:new 0 0 1206.4 1206.4;" xml:space="preserve">
<style type="text/css">
	.st0{fill:#322A23;}
</style>
<g>
	<path class="st0" d="M311.9,620.8c-9.3-8.5-23.3-12.8-42.1-12.8c-5.8,0-12.1,0.6-19,1.9c-6.9,1.2-14.2,3.3-21.9,6.3
		c-4.6,1.7-7.7,4.3-9.3,7.9c-1.6,3.6-1.9,7.2-0.9,10.8c1,3.6,3.1,6.2,6.2,7.9c3.1,1.7,7,1.6,11.7-0.4c6.1-2.5,11.8-4.3,17.1-5.3
		c5.3-1.1,10.2-1.6,14.6-1.6c7.9,0,13.5,1.5,16.9,4.6c3.3,3.1,5,8.2,5,15.5v4.2h-8.9c-17.2,0-31,1.1-41.4,3.3
		c-10.4,2.2-17.9,6-22.6,11.3c-4.6,5.3-6.9,12.3-6.9,21.1c0,7.4,2,14.1,6.1,20.1c4,5.9,9.5,10.7,16.5,14.1c6.9,3.5,15,5.2,24,5.2
		c8.4,0,15.6-1.9,21.4-5.7c5.9-3.8,10-8.9,12.5-15.4v1.5c0,12.7,5.9,19.1,17.6,19.1c11.6,0,17.4-6.4,17.4-19.1v-55
		C325.8,642.5,321.2,629.3,311.9,620.8 M290.1,684.2c0,7.6-2.4,13.8-7.2,18.6c-4.8,4.8-10.7,7.2-17.6,7.2c-6.1,0-10.8-1.5-14-4.5
		c-3.2-3-4.8-6.8-4.8-11.4c0-5.5,2.6-9.3,7.9-11.5c5.3-2.2,14.3-3.3,27-3.3h8.7V684.2z"/>
	<path class="st0" d="M499,608.1c-8.8,0-16.7,2-23.9,6.1c-7.2,4-12.7,9.7-16.5,17c-3.1-7.8-7.7-13.5-13.8-17.4
		c-6-3.8-13.3-5.7-21.9-5.7c-8.4,0-15.8,1.8-22.2,5.3c-6.4,3.6-11.4,8.5-15,14.7v-0.7c0-12.6-6.1-18.8-18.3-18.8
		c-12.2,0-18.3,6.3-18.3,18.8v88c0,12.7,6.3,19.1,18.8,19.1c12.4,0,18.6-6.4,18.6-19.1v-49.8c0-9.1,2-16.1,5.9-21.1
		c4-5,9.5-7.4,16.6-7.4c6,0,10.2,1.9,12.9,5.6c2.6,3.7,4,9.6,4,17.7v55c0,6.1,1.6,10.8,5,14.1c3.3,3.3,7.9,5,13.9,5
		c12.4,0,18.6-6.4,18.6-19.1v-49.8c0-9.1,2-16.1,6-21.1c4-5,9.5-7.4,16.6-7.4c6.1,0,10.4,1.9,13,5.6c2.6,3.7,3.8,9.6,3.8,17.7v55
		c0,12.7,6.3,19.1,18.8,19.1c6,0,10.5-1.7,13.8-5c3.2-3.3,4.8-8,4.8-14.1v-56.3c0-17.4-3.4-30.2-10.2-38.5
		C523.3,612.2,512.9,608.1,499,608.1"/>
	<path class="st0" d="M150,608.1c-8.8,0-16.7,2-23.9,6.1c-7.2,4-12.7,9.7-16.5,17c-3.1-7.8-7.7-13.5-13.8-17.4
		c-6-3.8-13.3-5.7-21.9-5.7c-8.4,0-15.8,1.8-22.2,5.3c-6.4,3.6-11.4,8.5-15,14.7v-0.7c0-12.6-6.1-18.8-18.3-18.8
		C6.1,608.6,0,614.8,0,627.4v88c0,12.7,6.3,19.1,18.8,19.1c12.4,0,18.6-6.4,18.6-19.1v-49.8c0-9.1,2-16.1,5.9-21.1
		c4-5,9.5-7.4,16.6-7.4c6,0,10.2,1.9,12.9,5.6c2.6,3.7,4,9.6,4,17.7v55c0,6.1,1.6,10.8,5,14.1c3.3,3.3,7.9,5,13.9,5
		c12.4,0,18.6-6.4,18.6-19.1v-49.8c0-9.1,2-16.1,6-21.1c4-5,9.5-7.4,16.6-7.4c6.1,0,10.4,1.9,13,5.6c2.6,3.7,3.8,9.6,3.8,17.7v55
		c0,12.7,6.3,19.1,18.8,19.1c6,0,10.5-1.7,13.8-5c3.2-3.3,4.8-8,4.8-14.1v-56.3c0-17.4-3.4-30.2-10.2-38.5
		C174.2,612.2,163.8,608.1,150,608.1"/>
	<path class="st0" d="M666.5,615.8c-8-5.1-17.3-7.7-27.9-7.7c-8.1,0-15.5,1.7-22.2,5.1c-6.7,3.4-11.9,8-15.5,13.8v-93.1
		c0-12.7-6.2-19.1-18.6-19.1c-12.6,0-18.8,6.4-18.8,19.1v181.6c0,12.7,6.2,19.1,18.6,19.1c12.2,0,18.3-6.4,18.3-19.1v-0.7
		c3.5,6.3,8.6,11.2,15.4,14.9c6.8,3.6,14.4,5.5,22.8,5.5c10.6,0,19.9-2.6,27.9-7.8c8-5.2,14.3-12.6,18.7-22.1
		c4.5-9.5,6.7-20.8,6.7-33.8c0-13.1-2.2-24.3-6.7-33.7C680.7,628.1,674.5,620.9,666.5,615.8 M646.8,698.3c-5,5.8-11.4,8.7-19.3,8.7
		c-8.1,0-14.6-2.9-19.6-8.7c-5-5.8-7.4-14.8-7.4-27c0-12.1,2.5-20.9,7.4-26.6c5-5.7,11.5-8.5,19.6-8.5c7.9,0,14.4,2.8,19.3,8.5
		c5,5.7,7.4,14.6,7.4,26.6C654.2,683.5,651.7,692.5,646.8,698.3"/>
	<path class="st0" d="M814.1,608.6c-12.4,0-18.6,6.3-18.6,18.8v51.1c0,8.3-2.3,14.9-6.8,20c-4.5,5-10.4,7.6-17.5,7.6
		c-12.4,0-18.6-7.2-18.6-21.6v-57c0-12.6-6.3-18.8-18.8-18.8c-12.4,0-18.6,6.3-18.6,18.8v56c0,17.2,3.7,30.1,11,38.7
		c7.3,8.6,18.8,12.9,34.3,12.9c15.9,0,27.8-6.4,35.9-19.3c0,6,1.6,10.6,4.7,13.9c3.1,3.3,7.7,5,13.6,5c12.1,0,18.1-6.4,18.1-19.1
		v-88C832.9,614.8,826.6,608.6,814.1,608.6"/>
	<path class="st0" d="M875,608.8c-12.6,0-18.8,6.9-18.8,20.6v84.8c0,6.4,1.6,11.4,4.8,15c3.2,3.6,7.9,5.3,14,5.3
		c6.1,0,10.7-1.8,13.9-5.3c3.1-3.6,4.7-8.6,4.7-15v-84.8c0-6.6-1.6-11.7-4.8-15.2C885.6,610.6,881,608.8,875,608.8"/>
	<path class="st0" d="M1187.6,734.5c12.6,0,18.8-6.9,18.8-20.6v-84.8c0-6.4-1.6-11.4-4.8-15c-3.2-3.6-7.9-5.3-14-5.3
		c-6.1,0-10.7,1.8-13.9,5.3c-3.1,3.6-4.7,8.6-4.7,15v84.8c0,6.6,1.6,11.7,4.8,15.2C1177,732.7,1181.6,734.5,1187.6,734.5"/>
	<path class="st0" d="M1126.9,649.2c12.6,0,18.8-6.9,18.8-20.6V491.8c0-6.4-1.6-11.4-4.8-15c-3.2-3.6-7.9-5.3-14-5.3
		s-10.7,1.8-13.9,5.3c-3.1,3.6-4.7,8.6-4.7,15v136.9c0,6.6,1.6,11.7,4.8,15.2C1116.3,647.5,1120.9,649.2,1126.9,649.2"/>
	<path class="st0" d="M1005.4,597.1c12.6,0,18.8-6.9,18.8-20.6v-84.8c0-6.4-1.6-11.4-4.8-15c-3.2-3.6-7.9-5.3-14-5.3
		s-10.7,1.8-13.9,5.3c-3.1,3.5-4.7,8.6-4.7,15v84.8c0,6.6,1.6,11.7,4.8,15.2C994.9,595.4,999.5,597.1,1005.4,597.1"/>
	<path class="st0" d="M1126.9,734.5c12.6,0,18.8-6.9,18.8-20.6v-32.7c0-6.4-1.6-11.4-4.8-15c-3.2-3.6-7.9-5.3-14-5.3
		s-10.7,1.8-13.9,5.3c-3.1,3.6-4.7,8.6-4.7,15v32.7c0,6.6,1.6,11.7,4.8,15.2C1116.3,732.7,1120.9,734.5,1126.9,734.5"/>
	<path class="st0" d="M1066.4,556.7c-12.6,0-18.8,6.9-18.8,20.6v136.9c0,6.4,1.6,11.4,4.8,15c3.2,3.6,7.9,5.3,14,5.3
		c6.1,0,10.7-1.8,13.9-5.3c3.1-3.6,4.7-8.6,4.7-15V577.2c0-6.6-1.6-11.7-4.8-15.2C1076.9,558.4,1072.3,556.7,1066.4,556.7"/>
	<path class="st0" d="M1066.4,471.4c-12.6,0-18.8,6.9-18.8,20.6v32.7c0,6.4,1.6,11.4,4.8,15c3.2,3.6,7.9,5.3,14,5.3
		c6.1,0,10.7-1.8,13.9-5.3c3.1-3.6,4.7-8.6,4.7-15V492c0-6.6-1.6-11.7-4.8-15.2C1076.9,473.2,1072.3,471.4,1066.4,471.4"/>
	<path class="st0" d="M1005.4,734.5c12.6,0,18.8-6.9,18.8-20.6v-84.8c0-6.4-1.6-11.4-4.8-15c-3.2-3.6-7.9-5.3-14-5.3
		s-10.7,1.8-13.9,5.3c-3.1,3.6-4.7,8.6-4.7,15v84.8c0,6.6,1.6,11.7,4.8,15.2C994.9,732.7,999.5,734.5,1005.4,734.5"/>
	<path class="st0" d="M915.7,553.6c0-5.1-4.1-9.2-9.2-9.2c-2.1,0-4,0.7-5.6,1.9l0,0l-31.6,23.9l0,0c-3.8,2.7-6.3,7.1-6.3,12.1
		c0,8.2,6.6,14.8,14.8,14.8c4.9,0,9.3-2.4,12-6.2l0,0l24-31.7l0,0C915,557.7,915.7,555.8,915.7,553.6"/>
	<path class="st0" d="M922.1,602.6c1.5-2.8,0.4-6.1-2.3-7.7c-2.3-1.3-14.8-0.1-14.8-0.1v0c-2.9,0.3-5.5,2-7,4.7
		c-2.4,4.4-0.7,9.9,3.7,12.3c2.7,1.4,5.8,1.4,8.3,0.1v0l9.4-6.9C919.4,605.1,921.5,603.7,922.1,602.6"/>
</g>
</svg>
