<?xml version="1.0" encoding="utf-8"?>
<!-- Generator: Adobe Illustrator 23.0.0, SVG Export Plug-In . SVG Version: 6.00 Build 0)  -->
<svg version="1.1" id="Capa_1" xmlns="http://www.w3.org/2000/svg" xmlns:xlink="http://www.w3.org/1999/xlink" x="0px" y="0px"
	 viewBox="0 0 1000 1000" style="enable-background:new 0 0 1000 1000;" xml:space="preserve">
<style type="text/css">
	.st0{display:none;}
	.st1{display:inline;}
	.st2{fill:none;stroke:url(#SVGID_1_);stroke-miterlimit:10;}
	.st3{stroke:url(#SVGID_2_);stroke-miterlimit:10;}
	.st4{stroke:url(#SVGID_3_);stroke-miterlimit:10;}
	.st5{fill:none;stroke:url(#SVGID_4_);stroke-width:2;stroke-miterlimit:10;}
	.st6{display:inline;stroke:url(#SVGID_5_);stroke-miterlimit:10;}
	.st7{display:inline;fill:none;stroke:url(#SVGID_6_);stroke-miterlimit:10;}
	.st8{display:inline;stroke:url(#SVGID_7_);stroke-miterlimit:10;}
	.st9{display:inline;stroke:url(#SVGID_8_);stroke-miterlimit:10;}
	.st10{display:inline;stroke:url(#SVGID_9_);stroke-miterlimit:10;}
	.st11{display:inline;stroke:url(#SVGID_10_);stroke-miterlimit:10;}
	.st12{display:inline;stroke:url(#SVGID_11_);stroke-miterlimit:10;}
	.st13{display:inline;stroke:url(#SVGID_12_);stroke-miterlimit:10;}
	.st14{fill:none;stroke:url(#SVGID_13_);stroke-width:11;stroke-miterlimit:10;}
	.st15{fill:none;stroke:url(#SVGID_14_);stroke-width:11;stroke-miterlimit:10;}
	.st16{fill:none;stroke:url(#SVGID_15_);stroke-width:11;stroke-miterlimit:10;}
	.st17{display:inline;fill:none;stroke:url(#SVGID_16_);stroke-width:11;stroke-miterlimit:10;}
	.st18{display:inline;fill:none;stroke:url(#SVGID_17_);stroke-width:11;stroke-miterlimit:10;}
	.st19{display:inline;fill:none;stroke:url(#SVGID_18_);stroke-width:11;stroke-miterlimit:10;}
	.st20{display:inline;fill:none;stroke:url(#SVGID_19_);stroke-width:11;stroke-miterlimit:10;}
	.st21{display:inline;fill:none;stroke:url(#SVGID_20_);stroke-width:11;stroke-miterlimit:10;}
	.st22{display:inline;fill:none;stroke:url(#SVGID_21_);stroke-width:11;stroke-miterlimit:10;}
	.st23{display:inline;fill:none;stroke:url(#SVGID_22_);stroke-width:11;stroke-miterlimit:10;}
	.st24{display:inline;fill:none;stroke:url(#SVGID_23_);stroke-width:11;stroke-miterlimit:10;}
	.st25{fill:url(#SVGID_24_);}
	.st26{fill:none;stroke:url(#SVGID_25_);stroke-miterlimit:10;}
</style>
<g class="st0">
	<g class="st1">
		
			<linearGradient id="SVGID_1_" gradientUnits="userSpaceOnUse" x1="203.3" y1="624.7" x2="758.7" y2="624.7" gradientTransform="matrix(1 0 0 1 0 -78)">
			<stop  offset="0" style="stop-color:#FF00DD"/>
			<stop  offset="1" style="stop-color:#9500D1"/>
		</linearGradient>
		<circle class="st2" cx="481" cy="546.7" r="277.2"/>
		
			<linearGradient id="SVGID_2_" gradientUnits="userSpaceOnUse" x1="185.3634" y1="853.3843" x2="261.58" y2="853.3843" gradientTransform="matrix(-0.726 -0.6878 0.6878 -0.726 -46.2999 1577.449)">
			<stop  offset="0" style="stop-color:#FF00DD"/>
			<stop  offset="1" style="stop-color:#9500D1"/>
		</linearGradient>
		
			<ellipse transform="matrix(0.3702 -0.929 0.929 0.3702 -508.705 858.0508)" class="st3" cx="378.4" cy="804.2" rx="37.6" ry="37.6"/>
		
			<linearGradient id="SVGID_3_" gradientUnits="userSpaceOnUse" x1="544.8" y1="369.2" x2="621" y2="369.2" gradientTransform="matrix(1 0 0 1 0 -78)">
			<stop  offset="0" style="stop-color:#FF00DD"/>
			<stop  offset="1" style="stop-color:#9500D1"/>
		</linearGradient>
		<circle class="st4" cx="582.9" cy="291.2" r="37.6"/>
	</g>
</g>
<linearGradient id="SVGID_4_" gradientUnits="userSpaceOnUse" x1="831.5" y1="575.8" x2="169.7" y2="575.8" gradientTransform="matrix(1 0 0 1 0 -78)">
	<stop  offset="0" style="stop-color:#FF00DD"/>
	<stop  offset="0.1661" style="stop-color:#F900DC"/>
	<stop  offset="0.3772" style="stop-color:#EA00DB"/>
	<stop  offset="0.6126" style="stop-color:#D000D8"/>
	<stop  offset="0.8639" style="stop-color:#AC00D4"/>
	<stop  offset="1" style="stop-color:#9500D1"/>
</linearGradient>
<circle class="st5" cx="500.6" cy="497.8" r="329.9"/>
<g id="Capa_3" class="st0">
	
		<linearGradient id="SVGID_5_" gradientUnits="userSpaceOnUse" x1="522.3052" y1="452.6053" x2="550.3111" y2="452.6053" gradientTransform="matrix(0.9745 -0.2244 0.2244 0.9745 -68.3969 38.3837)">
		<stop  offset="0" style="stop-color:#FF00DD"/>
		<stop  offset="1" style="stop-color:#9500D1"/>
	</linearGradient>
	<ellipse class="st6" cx="555.8" cy="359.1" rx="13.5" ry="13.5"/>
	
		<linearGradient id="SVGID_6_" gradientUnits="userSpaceOnUse" x1="533.7" y1="437.1" x2="577.9" y2="437.1" gradientTransform="matrix(1 0 0 1 0 -78)">
		<stop  offset="0" style="stop-color:#FF00DD"/>
		<stop  offset="1" style="stop-color:#9500D1"/>
	</linearGradient>
	<circle class="st7" cx="555.8" cy="359.1" r="21.6"/>
	
		<linearGradient id="SVGID_7_" gradientUnits="userSpaceOnUse" x1="413.9095" y1="724.6049" x2="441.9154" y2="724.6049" gradientTransform="matrix(0.9745 -0.2244 0.2244 0.9745 -132.202 20.996)">
		<stop  offset="0" style="stop-color:#FF00DD"/>
		<stop  offset="1" style="stop-color:#9500D1"/>
	</linearGradient>
	<ellipse class="st8" cx="447.4" cy="631.1" rx="13.5" ry="13.5"/>
	
		<linearGradient id="SVGID_8_" gradientUnits="userSpaceOnUse" x1="463.0532" y1="690.5" x2="471.0532" y2="690.5" gradientTransform="matrix(1 0 0 1 0 -78)">
		<stop  offset="0" style="stop-color:#FF00DD"/>
		<stop  offset="1" style="stop-color:#9500D1"/>
	</linearGradient>
	<circle class="st9" cx="467.1" cy="612.5" r="3.5"/>
	
		<linearGradient id="SVGID_9_" gradientUnits="userSpaceOnUse" x1="422.8405" y1="726.6" x2="430.8405" y2="726.6" gradientTransform="matrix(1 0 0 1 0 -78)">
		<stop  offset="0" style="stop-color:#FF00DD"/>
		<stop  offset="1" style="stop-color:#9500D1"/>
	</linearGradient>
	<circle class="st10" cx="426.8" cy="648.6" r="3.5"/>
	
		<linearGradient id="SVGID_10_" gradientUnits="userSpaceOnUse" x1="461.4313" y1="729.2" x2="469.4313" y2="729.2" gradientTransform="matrix(1 0 0 1 0 -78)">
		<stop  offset="0" style="stop-color:#FF00DD"/>
		<stop  offset="1" style="stop-color:#9500D1"/>
	</linearGradient>
	<circle class="st11" cx="465.4" cy="651.2" r="3.5"/>
</g>
<g id="Capa_4" class="st0">
	
		<linearGradient id="SVGID_11_" gradientUnits="userSpaceOnUse" x1="560.8426" y1="269.35" x2="684.4574" y2="269.35" gradientTransform="matrix(1 0 0 1 0 -78)">
		<stop  offset="0" style="stop-color:#FF00DD"/>
		<stop  offset="1" style="stop-color:#9500D1"/>
	</linearGradient>
	<path class="st12" d="M645.3,134.4c-31.5-12.5-67.1,2.8-79.6,34.3s2.8,67.1,34.3,79.6s67.1-2.8,79.6-34.3S676.8,146.9,645.3,134.4z
		 M611.5,219.3c-15.5-6.2-23.1-23.7-16.9-39.2c6.2-15.5,23.7-23.1,39.2-16.9s23.1,23.7,16.9,39.2C644.6,217.9,627,225.5,611.5,219.3
		z"/>
	
		<linearGradient id="SVGID_12_" gradientUnits="userSpaceOnUse" x1="316.5425" y1="882.35" x2="440.1574" y2="882.35" gradientTransform="matrix(1 0 0 1 0 -78)">
		<stop  offset="0" style="stop-color:#FF00DD"/>
		<stop  offset="1" style="stop-color:#9500D1"/>
	</linearGradient>
	<path class="st13" d="M401,747.4c-31.5-12.5-67.1,2.8-79.6,34.3s2.8,67.1,34.3,79.6s67.1-2.8,79.6-34.3S432.5,759.9,401,747.4z
		 M361.2,847.2c-23.8-9.5-35.3-36.4-25.9-60.2c9.5-23.8,36.4-35.3,60.2-25.9c23.8,9.5,35.3,36.4,25.9,60.2
		C411.9,845.2,385,856.7,361.2,847.2z"/>
</g>
<g class="st0">
	<g class="st1">
		
			<linearGradient id="SVGID_13_" gradientUnits="userSpaceOnUse" x1="475.1" y1="579.1" x2="523.5571" y2="579.1" gradientTransform="matrix(1 0 0 1 0 -78)">
			<stop  offset="0" style="stop-color:#FF00DD"/>
			<stop  offset="1" style="stop-color:#9500D1"/>
		</linearGradient>
		<circle class="st14" cx="499.3" cy="501.1" r="18.7"/>
		
			<linearGradient id="SVGID_14_" gradientUnits="userSpaceOnUse" x1="484.3154" y1="596.5" x2="500.3962" y2="596.5" gradientTransform="matrix(1 0 0 1 0 -78)">
			<stop  offset="0" style="stop-color:#FF00DD"/>
			<stop  offset="1" style="stop-color:#9500D1"/>
		</linearGradient>
		<circle class="st15" cx="492.4" cy="518.5" r="2.5"/>
		
			<linearGradient id="SVGID_15_" gradientUnits="userSpaceOnUse" x1="498.126" y1="561.9" x2="514.2068" y2="561.9" gradientTransform="matrix(1 0 0 1 0 -78)">
			<stop  offset="0" style="stop-color:#FF00DD"/>
			<stop  offset="1" style="stop-color:#9500D1"/>
		</linearGradient>
		<circle class="st16" cx="506.2" cy="483.9" r="2.5"/>
	</g>
</g>
<g id="Capa_3_1_" class="st0">
	
		<linearGradient id="SVGID_16_" gradientUnits="userSpaceOnUse" x1="497.9265" y1="566.5" x2="510.7508" y2="566.5" gradientTransform="matrix(1 0 0 1 0 -78)">
		<stop  offset="0" style="stop-color:#FF00DD"/>
		<stop  offset="1" style="stop-color:#9500D1"/>
	</linearGradient>
	<ellipse class="st17" cx="504.3" cy="488.5" rx="0.9" ry="0.9"/>
	
		<linearGradient id="SVGID_17_" gradientUnits="userSpaceOnUse" x1="497.3791" y1="566.5" x2="511.2979" y2="566.5" gradientTransform="matrix(1 0 0 1 0 -78)">
		<stop  offset="0" style="stop-color:#FF00DD"/>
		<stop  offset="1" style="stop-color:#9500D1"/>
	</linearGradient>
	<circle class="st18" cx="504.3" cy="488.5" r="1.5"/>
	
		<linearGradient id="SVGID_18_" gradientUnits="userSpaceOnUse" x1="490.6" y1="584.8" x2="503.4243" y2="584.8" gradientTransform="matrix(1 0 0 1 0 -78)">
		<stop  offset="0" style="stop-color:#FF00DD"/>
		<stop  offset="1" style="stop-color:#9500D1"/>
	</linearGradient>
	<ellipse class="st19" cx="497" cy="506.8" rx="0.9" ry="0.9"/>
	
		<linearGradient id="SVGID_19_" gradientUnits="userSpaceOnUse" x1="492.6" y1="583.6" x2="504.0729" y2="583.6" gradientTransform="matrix(1 0 0 1 0 -78)">
		<stop  offset="0" style="stop-color:#FF00DD"/>
		<stop  offset="1" style="stop-color:#9500D1"/>
	</linearGradient>
	<circle class="st20" cx="498.3" cy="505.6" r="0.2"/>
	
		<linearGradient id="SVGID_20_" gradientUnits="userSpaceOnUse" x1="489.9" y1="586" x2="501.373" y2="586" gradientTransform="matrix(1 0 0 1 0 -78)">
		<stop  offset="0" style="stop-color:#FF00DD"/>
		<stop  offset="1" style="stop-color:#9500D1"/>
	</linearGradient>
	<circle class="st21" cx="495.6" cy="508" r="0.2"/>
	
		<linearGradient id="SVGID_21_" gradientUnits="userSpaceOnUse" x1="492.5" y1="586.2" x2="503.973" y2="586.2" gradientTransform="matrix(1 0 0 1 0 -78)">
		<stop  offset="0" style="stop-color:#FF00DD"/>
		<stop  offset="1" style="stop-color:#9500D1"/>
	</linearGradient>
	<circle class="st22" cx="498.2" cy="508.2" r="0.2"/>
</g>
<g id="Capa_4_1_" class="st0">
	
		<linearGradient id="SVGID_22_" gradientUnits="userSpaceOnUse" x1="499.2251" y1="555.15" x2="518.51" y2="555.15" gradientTransform="matrix(1 0 0 1 0 -78)">
		<stop  offset="0" style="stop-color:#FF00DD"/>
		<stop  offset="1" style="stop-color:#9500D1"/>
	</linearGradient>
	<path class="st23" d="M510.4,473.3c-2.1-0.8-4.5,0.2-5.4,2.3c-0.8,2.1,0.2,4.5,2.3,5.4c2.1,0.8,4.5-0.2,5.4-2.3
		C513.5,476.5,512.5,474.1,510.4,473.3z M508.1,479c-1-0.4-1.6-1.6-1.1-2.7c0.4-1,1.6-1.6,2.7-1.1s1.6,1.6,1.1,2.7
		C510.3,478.9,509.1,479.4,508.1,479z"/>
	
		<linearGradient id="SVGID_23_" gradientUnits="userSpaceOnUse" x1="482.7251" y1="596.55" x2="502.0101" y2="596.55" gradientTransform="matrix(1 0 0 1 0 -78)">
		<stop  offset="0" style="stop-color:#FF00DD"/>
		<stop  offset="1" style="stop-color:#9500D1"/>
	</linearGradient>
	<path class="st24" d="M493.9,514.7c-2.1-0.8-4.5,0.2-5.4,2.3c-0.8,2.1,0.2,4.5,2.3,5.4c2.1,0.8,4.5-0.2,5.4-2.3
		C497,517.9,496,515.5,493.9,514.7z M491.2,521.4c-1.6-0.6-2.4-2.5-1.7-4.1c0.6-1.6,2.5-2.4,4.1-1.7s2.4,2.5,1.7,4.1
		C494.6,521.3,492.8,522.1,491.2,521.4z"/>
</g>
<linearGradient id="SVGID_24_" gradientUnits="userSpaceOnUse" x1="936.3" y1="733.2" x2="955.7" y2="733.2" gradientTransform="matrix(1 0 0 1 0 -78)">
	<stop  offset="0" style="stop-color:#FF00DD"/>
	<stop  offset="1" style="stop-color:#9500D1"/>
</linearGradient>
<circle class="st25" cx="946" cy="655.2" r="9.7"/>
<linearGradient id="SVGID_25_" gradientUnits="userSpaceOnUse" x1="910.7949" y1="725.6856" x2="931.0352" y2="725.6856" gradientTransform="matrix(1 0 0 1 0 -78)">
	<stop  offset="0" style="stop-color:#FF00DD"/>
	<stop  offset="1" style="stop-color:#9500D1"/>
</linearGradient>
<polygon class="st26" points="911.7,641.5 923.3,656.2 930.2,638.8 "/>
</svg>
