<?xml version="1.0" encoding="utf-8"?>
<!-- Generator: Adobe Illustrator 23.0.0, SVG Export Plug-In . SVG Version: 6.00 Build 0)  -->
<svg version="1.1" id="Capa_1" xmlns="http://www.w3.org/2000/svg" xmlns:xlink="http://www.w3.org/1999/xlink" x="0px" y="0px"
	 viewBox="0 0 1000 1000" style="enable-background:new 0 0 1000 1000;" xml:space="preserve">
<style type="text/css">
	.st0{display:none;}
	.st1{display:inline;}
	.st2{fill:none;stroke:#000000;stroke-miterlimit:10;}
	.st3{display:inline;fill:none;stroke:#000000;stroke-miterlimit:10;}
	.st4{fill:none;stroke:url(#SVGID_1_);stroke-miterlimit:10;}
	.st5{fill:none;stroke:url(#SVGID_2_);stroke-miterlimit:10;}
</style>
<g class="st0">
	<g class="st1">
		<circle class="st2" cx="499.9" cy="552.7" r="277.2"/>
		<circle cx="499.9" cy="829.9" r="37.6"/>
		<circle cx="499.9" cy="277.6" r="37.6"/>
	</g>
</g>
<g class="st0">
	<circle class="st3" cx="500" cy="500" r="329.9"/>
	<circle class="st3" cx="500" cy="496.7" r="146.1"/>
</g>
<g id="Capa_3" class="st0">
	<ellipse transform="matrix(0.6 -0.8 0.8 0.6 -80.5831 540.2241)" class="st1" cx="499.9" cy="350.7" rx="13.5" ry="13.5"/>
	<circle class="st3" cx="499.9" cy="350.7" r="21.6"/>
	<ellipse transform="matrix(0.6 -0.8 0.8 0.6 -314.8279 657.3573)" class="st1" cx="499.9" cy="643.5" rx="13.5" ry="13.5"/>
	<circle class="st1" cx="511.3" cy="619" r="3.5"/>
	<circle class="st1" cx="487.3" cy="667.4" r="3.5"/>
	<circle class="st1" cx="524.1" cy="655.5" r="3.5"/>
</g>
<linearGradient id="SVGID_1_" gradientUnits="userSpaceOnUse" x1="561.7" y1="830" x2="438.1" y2="830">
	<stop  offset="0" style="stop-color:#FF00DD"/>
	<stop  offset="1" style="stop-color:#9500D1"/>
</linearGradient>
<path class="st4" d="M499.9,768.7c-33.9,0-61.3,27.4-61.3,61.3c0,33.9,27.4,61.3,61.3,61.3s61.3-27.4,61.3-61.3
	C561.2,796.1,533.8,768.7,499.9,768.7z M499.9,876.2c-25.6,0-46.3-20.7-46.3-46.3s20.7-46.3,46.3-46.3c25.6,0,46.3,20.7,46.3,46.3
	S525.5,876.2,499.9,876.2z"/>
<g id="Capa_4_1_">
	<linearGradient id="SVGID_2_" gradientUnits="userSpaceOnUse" x1="438.1" y1="170.1" x2="561.7" y2="170.1">
		<stop  offset="0" style="stop-color:#FF00DD"/>
		<stop  offset="1" style="stop-color:#9500D1"/>
	</linearGradient>
	<path class="st5" d="M499.9,108.8c-33.9,0-61.3,27.4-61.3,61.3s27.4,61.3,61.3,61.3s61.3-27.4,61.3-61.3S533.8,108.8,499.9,108.8z
		 M499.9,216.3c-25.6,0-46.3-20.7-46.3-46.3s20.7-46.3,46.3-46.3c25.6,0,46.3,20.7,46.3,46.3S525.5,216.3,499.9,216.3z"/>
</g>
</svg>
