<?xml version="1.0" encoding="utf-8"?>
<!-- Generator: Adobe Illustrator 23.0.0, SVG Export Plug-In . SVG Version: 6.00 Build 0)  -->
<svg version="1.1" id="Capa_1" xmlns="http://www.w3.org/2000/svg" xmlns:xlink="http://www.w3.org/1999/xlink" x="0px" y="0px"
	 viewBox="0 0 1000 1000" style="enable-background:new 0 0 1000 1000;" xml:space="preserve">
<style type="text/css">
	.st0{fill:none;stroke:url(#SVGID_1_);stroke-width:2;stroke-miterlimit:10;}
	.st1{display:none;}
	.st2{display:inline;}
	.st3{fill:none;stroke:#000000;stroke-miterlimit:10;}
	.st4{display:inline;fill:none;stroke:#000000;stroke-miterlimit:10;}
	.st5{fill:url(#SVGID_2_);}
	.st6{fill:none;stroke:url(#SVGID_3_);stroke-miterlimit:10;}
	.st7{fill:url(#SVGID_4_);}
	.st8{fill:none;stroke:url(#SVGID_5_);stroke-miterlimit:10;}
</style>
<g>
	
		<linearGradient id="SVGID_1_" gradientUnits="userSpaceOnUse" x1="647.1" y1="578" x2="352.9" y2="578" gradientTransform="matrix(1 0 0 1 0 -78)">
		<stop  offset="0" style="stop-color:#FF00DD"/>
		<stop  offset="0.1892" style="stop-color:#FB00DD"/>
		<stop  offset="0.3853" style="stop-color:#EE00DB"/>
		<stop  offset="0.5845" style="stop-color:#DA00D9"/>
		<stop  offset="0.7859" style="stop-color:#BD00D5"/>
		<stop  offset="0.9873" style="stop-color:#9800D1"/>
		<stop  offset="1" style="stop-color:#9500D1"/>
	</linearGradient>
	<circle class="st0" cx="500" cy="500" r="146.1"/>
</g>
<g>
	<g class="st1">
		<g class="st2">
			<circle class="st3" cx="499.9" cy="552.7" r="277.2"/>
			<circle cx="499.9" cy="829.9" r="37.6"/>
			<circle cx="499.9" cy="277.6" r="37.6"/>
		</g>
	</g>
	<g class="st1">
		<circle class="st4" cx="500" cy="500" r="329.9"/>
		<circle class="st4" cx="500" cy="496.7" r="146.1"/>
	</g>
	<g id="Capa_4" class="st1">
		<path class="st2" d="M499.9,108.8c-33.9,0-61.3,27.4-61.3,61.3s27.4,61.3,61.3,61.3s61.3-27.4,61.3-61.3S533.8,108.8,499.9,108.8z
			 M499.9,200.2c-16.7,0-30.2-13.5-30.2-30.2s13.5-30.2,30.2-30.2c16.7,0,30.2,13.5,30.2,30.2S516.6,200.2,499.9,200.2z"/>
		<path class="st2" d="M499.9,768.7c-33.9,0-61.3,27.4-61.3,61.3c0,33.9,27.4,61.3,61.3,61.3s61.3-27.4,61.3-61.3
			C561.2,796.1,533.8,768.7,499.9,768.7z M499.9,876.2c-25.6,0-46.3-20.7-46.3-46.3s20.7-46.3,46.3-46.3c25.6,0,46.3,20.7,46.3,46.3
			S525.5,876.2,499.9,876.2z"/>
	</g>
	
		<linearGradient id="SVGID_2_" gradientUnits="userSpaceOnUse" x1="483.5" y1="431.6" x2="510.5" y2="431.6" gradientTransform="matrix(1 0 0 1 0 -78)">
		<stop  offset="0" style="stop-color:#FF00DD"/>
		<stop  offset="1" style="stop-color:#9500D1"/>
	</linearGradient>
	<ellipse class="st5" cx="497" cy="353.6" rx="13.5" ry="13.5"/>
	
		<linearGradient id="SVGID_3_" gradientUnits="userSpaceOnUse" x1="317.0728" y1="403.9828" x2="361.2843" y2="403.9828" gradientTransform="matrix(-0.6936 -0.7204 0.7204 -0.6936 441.2578 878.138)">
		<stop  offset="0" style="stop-color:#FF00DD"/>
		<stop  offset="1" style="stop-color:#9500D1"/>
	</linearGradient>
	<ellipse transform="matrix(0.6 -0.8 0.8 0.6 -84.0631 539.064)" class="st6" cx="497" cy="353.6" rx="21.6" ry="21.6"/>
	
		<linearGradient id="SVGID_4_" gradientUnits="userSpaceOnUse" x1="510.5" y1="724.4" x2="483.5" y2="724.4" gradientTransform="matrix(1 0 0 1 0 -78)">
		<stop  offset="0" style="stop-color:#FF00DD"/>
		<stop  offset="1" style="stop-color:#9500D1"/>
	</linearGradient>
	<ellipse class="st7" cx="497" cy="646.4" rx="13.5" ry="13.5"/>
	
		<linearGradient id="SVGID_5_" gradientUnits="userSpaceOnUse" x1="390.1597" y1="722.6545" x2="345.9593" y2="722.6545" gradientTransform="matrix(-0.3827 -0.9239 0.9239 -0.3827 -29.8041 1263.0013)">
		<stop  offset="0" style="stop-color:#FF00DD"/>
		<stop  offset="1" style="stop-color:#9500D1"/>
	</linearGradient>
	<ellipse class="st8" cx="497" cy="646.4" rx="21.6" ry="21.6"/>
</g>
</svg>
