<?xml version="1.0" encoding="utf-8"?>
<!-- Generator: Adobe Illustrator 23.0.0, SVG Export Plug-In . SVG Version: 6.00 Build 0)  -->
<svg version="1.1" id="Capa_1" xmlns="http://www.w3.org/2000/svg" xmlns:xlink="http://www.w3.org/1999/xlink" x="0px" y="0px"
	 viewBox="0 0 1000 1000" style="enable-background:new 0 0 1000 1000;" xml:space="preserve">
<style type="text/css">
	.st0{fill:none;stroke:url(#SVGID_1_);stroke-width:2;stroke-miterlimit:10;stroke-dasharray:8;}
	.st1{fill:url(#SVGID_2_);}
	.st2{fill:url(#SVGID_3_);}
	.st3{display:none;}
	.st4{display:inline;fill:none;stroke:#000000;stroke-miterlimit:10;}
	.st5{display:inline;}
</style>
<g>
	
		<linearGradient id="SVGID_1_" gradientUnits="userSpaceOnUse" x1="499.9" y1="907.9" x2="499.9" y2="353.5" gradientTransform="matrix(1 0 0 1 0 -78)">
		<stop  offset="0" style="stop-color:#FF00DD"/>
		<stop  offset="1" style="stop-color:#9500D1"/>
	</linearGradient>
	<line class="st0" x1="499.9" y1="275.5" x2="499.9" y2="829.9"/>
</g>
<linearGradient id="SVGID_2_" gradientUnits="userSpaceOnUse" x1="537.5" y1="907.9" x2="462.3" y2="907.9" gradientTransform="matrix(1 0 0 1 0 -78)">
	<stop  offset="0" style="stop-color:#FF00DD"/>
	<stop  offset="0.1892" style="stop-color:#FB00DD"/>
	<stop  offset="0.3853" style="stop-color:#EE00DB"/>
	<stop  offset="0.5845" style="stop-color:#DA00D9"/>
	<stop  offset="0.7859" style="stop-color:#BD00D5"/>
	<stop  offset="0.9873" style="stop-color:#9800D1"/>
	<stop  offset="1" style="stop-color:#9500D1"/>
</linearGradient>
<circle class="st1" cx="499.9" cy="829.9" r="37.6"/>
<linearGradient id="SVGID_3_" gradientUnits="userSpaceOnUse" x1="462.3" y1="355.6" x2="537.5" y2="355.6" gradientTransform="matrix(1 0 0 1 0 -78)">
	<stop  offset="0" style="stop-color:#FF00DD"/>
	<stop  offset="0.1892" style="stop-color:#FB00DD"/>
	<stop  offset="0.3853" style="stop-color:#EE00DB"/>
	<stop  offset="0.5845" style="stop-color:#DA00D9"/>
	<stop  offset="0.7859" style="stop-color:#BD00D5"/>
	<stop  offset="0.9873" style="stop-color:#9800D1"/>
	<stop  offset="1" style="stop-color:#9500D1"/>
</linearGradient>
<circle class="st2" cx="499.9" cy="277.6" r="37.6"/>
<g class="st3">
	<circle class="st4" cx="500" cy="500" r="329.9"/>
	<circle class="st4" cx="500" cy="496.7" r="146.1"/>
</g>
<g id="Capa_3" class="st3">
	<ellipse transform="matrix(0.6 -0.8 0.8 0.6 -80.5831 540.2241)" class="st5" cx="499.9" cy="350.7" rx="13.5" ry="13.5"/>
	<circle class="st4" cx="499.9" cy="350.7" r="21.6"/>
	<ellipse transform="matrix(0.6 -0.8 0.8 0.6 -314.8279 657.3573)" class="st5" cx="499.9" cy="643.5" rx="13.5" ry="13.5"/>
	<circle class="st5" cx="511.3" cy="619" r="3.5"/>
	<circle class="st5" cx="487.3" cy="667.4" r="3.5"/>
	<circle class="st5" cx="524.1" cy="655.5" r="3.5"/>
</g>
<g id="Capa_4" class="st3">
	<path class="st5" d="M499.9,108.8c-33.9,0-61.3,27.4-61.3,61.3s27.4,61.3,61.3,61.3s61.3-27.4,61.3-61.3S533.8,108.8,499.9,108.8z
		 M499.9,200.2c-16.7,0-30.2-13.5-30.2-30.2s13.5-30.2,30.2-30.2c16.7,0,30.2,13.5,30.2,30.2S516.6,200.2,499.9,200.2z"/>
	<path class="st5" d="M499.9,768.7c-33.9,0-61.3,27.4-61.3,61.3c0,33.9,27.4,61.3,61.3,61.3s61.3-27.4,61.3-61.3
		C561.2,796.1,533.8,768.7,499.9,768.7z M499.9,876.2c-25.6,0-46.3-20.7-46.3-46.3s20.7-46.3,46.3-46.3c25.6,0,46.3,20.7,46.3,46.3
		S525.5,876.2,499.9,876.2z"/>
</g>
</svg>
