<?xml version="1.0" encoding="utf-8"?>
<!-- Generator: Adobe Illustrator 25.2.1, SVG Export Plug-In . SVG Version: 6.00 Build 0)  -->
<svg version="1.1" id="Capa_1" xmlns="http://www.w3.org/2000/svg" xmlns:xlink="http://www.w3.org/1999/xlink" x="0px" y="0px"
	 viewBox="0 0 1206.4 1206.4" style="enable-background:new 0 0 1206.4 1206.4;" xml:space="preserve">
<style type="text/css">
	.st0{fill:#FFFFFF;}
	.st1{fill:#FF1D25;}
</style>
<g>
	<path class="st0" d="M1037.3,676.9V529.5H889.9v147.4h105.3H1037.3z M932,564.2h63.2v78H932V564.2z"/>
	<rect x="826.2" y="529.5" class="st0" width="42.1" height="147.4"/>
	<polygon class="st0" points="316.5,676.9 316.5,529.5 274.4,529.5 274.4,585.8 211.2,585.8 211.2,529.5 169.1,529.5 169.1,676.9 
		211.2,676.9 211.2,620.4 274.4,620.4 274.4,676.9 	"/>
	<polygon class="st0" points="147.4,529.5 0,529.5 0,564.1 52.7,564.1 52.7,676.9 94.8,676.9 94.8,564.1 147.4,564.1 	"/>
	<polygon class="st1" points="635.4,564.2 635.4,529.5 338.2,529.5 338.2,564.2 465.7,564.2 465.7,585.8 338.2,585.8 338.2,620.5 
		465.7,620.5 465.7,642.2 338.2,642.2 338.2,676.9 635.4,676.9 635.4,642.2 507.8,642.2 507.8,620.5 635.4,620.5 635.4,585.8 
		507.8,585.8 507.8,564.2 	"/>
	<polygon class="st0" points="762.4,640.6 762.4,677 804.5,677 804.5,625.9 781.8,603.2 804.5,580.6 804.5,529.5 657.1,529.5 
		657.1,564.2 764,564.2 742.4,585.8 657.1,585.8 657.1,677 699.1,677 699.1,620.5 742.3,620.5 	"/>
	<polygon class="st0" points="1206.4,676.9 1206.4,529.5 1164.3,529.5 1164.3,618.4 1101.6,529.5 1059,529.5 1059,676.9 
		1101.1,676.9 1101.1,587.9 1163.8,676.9 	"/>
</g>
</svg>
