<?xml version="1.0" encoding="utf-8"?>
<!-- Generator: Adobe Illustrator 23.0.0, SVG Export Plug-In . SVG Version: 6.00 Build 0)  -->
<svg version="1.1" id="Capa_1" xmlns="http://www.w3.org/2000/svg" xmlns:xlink="http://www.w3.org/1999/xlink" x="0px" y="0px"
	 viewBox="0 0 1000 1000" style="enable-background:new 0 0 1000 1000;" xml:space="preserve">
<style type="text/css">
	.st0{fill:rgb(253, 11, 64);}
</style>
<g>
	<polygon class="st0" points="844.7,455.4 589.1,199.9 410.9,199.9 155.3,455.4 500,800.1 706.8,593.3 603.4,489.9 568.9,524.4 
		637.9,593.3 500,731.2 224.2,455.4 431.1,248.6 568.9,248.6 810.2,489.9 	"/>
</g>
<g id="Capa_3">
	<polygon class="st0" points="500,662.3 293.2,455.4 451.2,297.4 548.7,297.4 775.7,524.4 741.3,558.8 528.5,346.1 471.5,346.1 
		362.1,455.4 500,593.3 534.5,558.9 568.9,593.3 	"/>
</g>
<g id="Capa_4">
	<polygon class="st0" points="534.7,421.2 569.1,455.6 500.2,524.6 431.3,455.6 465.7,421.2 500.2,455.4 	"/>
	<path class="st0" d="M392.8,514.2"/>
</g>
</svg>
